/* XPM */
static const char *iconsnothing[] = {
/* columns rows colors chars-per-pixel */
"20 20 74 1 ",
"  c #3F431E",
". c #40441F",
"X c #424722",
"o c #444A23",
"O c #4E562C",
"+ c #4F562C",
"@ c #4F592F",
"# c #545C30",
"$ c #586535",
"% c #5B6A39",
"& c #636E3D",
"* c #6D6C39",
"= c #6C6F3B",
"- c #6B7232",
"; c #6A7735",
": c #6B7B35",
"> c #6A7E36",
", c #63713E",
"< c #6A7739",
"1 c #69793E",
"2 c #697C3C",
"3 c #576948",
"4 c #5A6D4C",
"5 c #5E7553",
"6 c #667640",
"7 c #697442",
"8 c #667841",
"9 c #697940",
"0 c #6D7945",
"q c #6D7C46",
"w c #707D48",
"e c #6B803C",
"r c #6B8147",
"t c #6E874D",
"y c #73834B",
"u c #70864B",
"i c #74864E",
"p c #75884E",
"a c #66815F",
"s c #718E50",
"d c #768C51",
"f c #788E52",
"g c #799054",
"h c #779559",
"j c #71905C",
"k c #77A85D",
"l c #78A95F",
"z c #7AAB64",
"x c #7CAC67",
"c c #7DAD69",
"v c #82A668",
"b c #84AA6B",
"n c #8BB96C",
"m c #88B070",
"M c #89B673",
"N c #8DBB74",
"B c #8FBC7A",
"V c #80A888",
"C c #81AA8A",
"Z c #88B583",
"A c #89B981",
"S c #8FBD82",
"D c #8BBB86",
"F c #87B28D",
"G c #90BD8C",
"H c #86B291",
"J c #8FBB98",
"K c #91C090",
"L c #93C194",
"P c #96C495",
"I c #97C699",
"U c #97C69D",
"Y c #98C79E",
"T c #99C79E",
/* pixels */
"lxcxkk222899999997<*",
"DLLGBx222299999997**",
"UUYUUK:222,99999277&",
"UUUUUUee222999997272",
"UUITIT:ee7:999996887",
"YYTTTT:e2:2299w9w997",
"LLTTTY::2:2999889999",
"nNBSGJJ:2:99999986w9",
"nNZFHHF:2:;117299w69",
"NVVVVVV;:911:;999999",
"ja54434;:2;:11999999",
"%@oXX .X:21;11299999",
"di6%+oX.-22-;;;799w7",
"fddiw7#o:-<<;1119992",
"ppdiyyw&+-<<<<-97999",
"uitiyyw07;<<<<<19997",
"su9t2u8w7;;;;&;11772",
"bxhu8666,1;1-<*21117",
"mbmvht66&$;;*<<-1711",
"MmMmbbjt%$-1<-*2;117"
};
