/* XPM */
static const char *iconsin[] = {
/* columns rows colors chars-per-pixel */
"36 36 2 1 ",
"  c None",
". c black",
/* pixels */
"                                    ",
"                                    ",
"                                    ",
"                                    ",
"                                    ",
"          ........                  ",
"        ............                ",
"       ..............               ",
"      .....       ....              ",
"      ...          ....             ",
"     ....           ...             ",
"     ...      .     ...             ",
"     ...      .      ...            ",
"     ...     ..      ...            ",
"     ...   .......   ...            ",
"     ...      .      ...            ",
"     ...      .      ...            ",
"     ...      .     ...             ",
"     ....          ....             ",
"      ....        ....              ",
"       .....     .....              ",
"        ................            ",
"         ..........  ....           ",
"           ......    .....          ",
"                      .....         ",
"                       .....        ",
"                        .....       ",
"                         .....      ",
"                          ....      ",
"                           ...      ",
"                                    ",
"                                    ",
"                                    ",
"                                    ",
"                                    ",
"                                    "
};
