/* XPM */
static const char *iconsleft[] = {
/* columns rows colors chars-per-pixel */
"36 36 2 1 ",
"  c None",
". c black",
/* pixels */
"                                    ",
"                                    ",
"                                    ",
"                                    ",
"                                    ",
"                                    ",
"                                    ",
"                                    ",
"                                    ",
"                                    ",
"                    ..              ",
"                   ....             ",
"                  ....              ",
"                 ....               ",
"                ....                ",
"               ....                 ",
"              ....                  ",
"             ....                   ",
"            .....                   ",
"             .....                  ",
"              .....                 ",
"               .....                ",
"                .....               ",
"                 .....              ",
"                  .....             ",
"                   ....             ",
"                    ..              ",
"                                    ",
"                                    ",
"                                    ",
"                                    ",
"                                    ",
"                                    ",
"                                    ",
"                                    ",
"                                    "
};
